<svg width="441" height="154" viewBox="0 0 441 154" fill="none" xmlns="http://www.w3.org/2000/svg">
<path d="M350.985 105.317V132.07C355.335 134.299 360.481 135.971 366.422 137.086C372.362 138.201 378.623 138.758 385.206 138.758C391.62 138.758 397.714 138.144 403.487 136.918C409.259 135.692 414.322 133.672 418.672 130.858C423.023 128.043 426.467 124.364 429.006 119.822C431.544 115.28 432.812 109.665 432.812 102.977C432.812 98.1284 432.087 93.8782 430.637 90.2276C429.203 86.6018 427.071 83.2928 424.362 80.4885C421.629 77.6457 418.352 75.0964 414.531 72.8386C410.71 70.5818 406.401 68.45 401.604 66.4441C398.09 64.9941 394.939 63.5877 392.149 62.222C389.361 60.8563 386.99 59.4635 385.038 58.0416C383.085 56.6207 381.579 55.1155 380.52 53.527C379.46 51.9385 378.93 50.1418 378.93 48.1349C378.93 46.2956 379.404 44.6383 380.352 43.1612C381.3 41.6841 382.64 40.4163 384.369 39.3576C386.098 38.298 388.217 37.4766 390.727 36.8906C393.237 36.3056 396.027 36.0131 399.094 36.0131C401.326 36.0131 403.682 36.1806 406.164 36.5148C408.646 36.849 411.142 37.3642 413.653 38.0616C416.155 38.7554 418.602 39.6357 420.973 40.6952C423.272 41.714 425.471 42.9452 427.541 44.3729V19.3767C423.47 17.8163 419.021 16.6598 414.196 15.9072C409.372 15.1546 403.835 14.7788 397.588 14.7788C391.229 14.7788 385.206 15.4617 379.516 16.8274C373.827 18.1921 368.82 20.324 364.497 23.222C360.174 26.1209 356.758 29.8132 354.248 34.2997C351.738 38.7861 350.483 44.1502 350.483 50.3927C350.483 58.3622 352.783 65.1616 357.386 70.7911C361.988 76.4195 368.973 81.1849 378.344 85.0864C381.804 86.4953 385.235 87.9726 388.635 89.5177C391.815 90.9667 394.562 92.4709 396.877 94.0313C399.192 95.5917 401.019 97.2915 402.357 99.1309C403.696 100.97 404.365 103.06 404.365 105.401C404.376 107.086 403.943 108.744 403.11 110.209C402.274 111.685 401.004 112.967 399.303 114.054C397.602 115.141 395.482 115.99 392.945 116.603C390.407 117.216 387.436 117.523 384.034 117.523C378.233 117.523 372.488 116.506 366.799 114.471C361.108 112.437 355.837 109.386 350.985 105.317ZM311.289 37.1122H345.691V15.0847H249.801V37.1122H284.036V138.452H311.289V37.1122Z" fill="#3178C6"/>
<path fill-rule="evenodd" clip-rule="evenodd" d="M130.529 49.7446C120.252 52.3547 113.237 54.3123 103.123 56.9223C100.676 57.5749 100.513 57.738 98.3921 55.291C95.9451 52.5178 94.1507 50.7234 90.725 49.0921C80.4478 44.0351 70.4969 45.5032 61.1985 51.539C50.1056 58.7168 44.3961 69.3202 44.5592 82.5337C44.7223 95.5841 53.6945 106.351 66.5818 108.145C77.6746 109.613 86.973 105.698 94.3138 97.3786C95.782 95.5841 97.0871 93.6266 98.7184 91.3428C92.8457 91.3428 85.5048 91.3428 67.2343 91.3428C63.8085 91.3428 62.9929 89.2221 64.1348 86.4489C66.2555 81.3918 70.1706 72.9091 72.4544 68.6677C72.9438 67.6889 74.0857 66.0576 76.5327 66.0576H135.912C135.586 70.4621 135.586 74.8666 134.933 79.2711C133.139 91.0165 128.734 101.783 121.557 111.245C109.811 126.742 94.477 136.367 75.0645 138.977C59.0778 141.097 44.2329 137.998 31.1825 128.21C19.1109 119.075 12.2595 107.003 10.465 91.9953C8.34435 74.2141 13.5645 58.2274 24.3311 44.1982C35.9133 29.0271 51.2475 19.4024 70.0075 15.9767C85.3417 13.2035 100.023 14.9979 113.237 23.9701C121.883 29.6796 128.082 37.5099 132.16 46.9714C133.139 48.4396 132.486 49.2552 130.529 49.7446Z" fill="#16C7F8"/>
<path d="M184.525 139.956C169.68 139.629 156.14 135.388 144.721 125.6C135.096 117.281 129.061 106.677 127.103 94.1162C124.167 75.6825 129.224 59.3695 140.317 44.8509C152.225 29.1904 166.58 21.0339 185.993 17.6082C202.632 14.6719 218.293 16.3032 232.485 25.9278C245.372 34.7368 253.366 46.6453 255.486 62.3058C258.26 84.3284 251.897 102.273 236.726 117.607C225.96 128.537 212.746 135.388 197.575 138.488C193.171 139.303 188.766 139.466 184.525 139.956ZM223.35 74.0512C223.187 71.9305 223.187 70.2992 222.86 68.6679C219.924 52.518 205.079 43.3827 189.582 46.9716C174.411 50.3973 164.623 60.022 161.034 75.3562C158.098 88.0804 164.297 100.968 176.042 106.188C185.014 110.103 193.986 109.614 202.632 105.209C215.52 98.5207 222.534 88.0804 223.35 74.0512Z" fill="#16C7F8"/>
</svg>
